inDegrees=no
num_controls=7
num_derivatives=13
num_iterations=102
num_multipliers=7
num_parameters=0
num_slacks=7
num_states=26
objective=0.445699
objective_accelerations=0.056982
objective_balance=0.003581
objective_effort=0.022947
objective_height=0.356617
objective_ligament=0.005572
solver_duration=1435.553335
status=Solve_Succeeded
success=true
DataType=double
version=3
OpenSimVersion=4.5
endheader
time	/jointset/ground_pelvis/pelvis_tilt/value	/jointset/ground_pelvis/pelvis_tx/value	/jointset/ground_pelvis/pelvis_ty/value	/jointset/hip_l/hip_flexion_l/value	/jointset/hip_l/hip_adduction_l/value	/jointset/hip_l/hip_rotation_l/value	/jointset/back/lumbar_extension/value	/jointset/patellofemoral_l/patellar_flexion_l/value	/jointset/knee_l/knee_flexion_l/value	/jointset/knee_l/knee_adduction_l/value	/jointset/knee_l/knee_rotation_l/value	/jointset/ankle_l/ankle_angle_l/value	/jointset/subtalar_l/subtalar_angle_l/value	/jointset/ground_pelvis/pelvis_tilt/speed	/jointset/ground_pelvis/pelvis_tx/speed	/jointset/ground_pelvis/pelvis_ty/speed	/jointset/hip_l/hip_flexion_l/speed	/jointset/hip_l/hip_adduction_l/speed	/jointset/hip_l/hip_rotation_l/speed	/jointset/back/lumbar_extension/speed	/jointset/patellofemoral_l/patellar_flexion_l/speed	/jointset/knee_l/knee_flexion_l/speed	/jointset/knee_l/knee_adduction_l/speed	/jointset/knee_l/knee_rotation_l/speed	/jointset/ankle_l/ankle_angle_l/speed	/jointset/subtalar_l/subtalar_angle_l/speed	/forceset/tau_hip_flexion_l	/forceset/tau_hip_adduction_l	/forceset/tau_hip_rotation_l	/forceset/tau_knee_flexion_l	/forceset/tau_ankle_angle_l	/forceset/tau_subtalar_angle_l	/forceset/tau_lumbar_extension	lambda_cid13_p0	lambda_cid13_p1	lambda_cid13_p2	lambda_cid13_p3	lambda_cid13_p4	lambda_cid13_p5	lambda_cid14_p0	/jointset/ground_pelvis/pelvis_tilt/accel	/jointset/ground_pelvis/pelvis_tx/accel	/jointset/ground_pelvis/pelvis_ty/accel	/jointset/hip_l/hip_flexion_l/accel	/jointset/hip_l/hip_adduction_l/accel	/jointset/hip_l/hip_rotation_l/accel	/jointset/back/lumbar_extension/accel	/jointset/patellofemoral_l/patellar_flexion_l/accel	/jointset/knee_l/knee_flexion_l/accel	/jointset/knee_l/knee_adduction_l/accel	/jointset/knee_l/knee_rotation_l/accel	/jointset/ankle_l/ankle_angle_l/accel	/jointset/subtalar_l/subtalar_angle_l/accel	gamma_cid13_p0	gamma_cid13_p1	gamma_cid13_p2	gamma_cid13_p3	gamma_cid13_p4	gamma_cid13_p5	gamma_cid14_p0
1	-0.5527897725240859	-0.08368156470316249	0.5758469204343284	1.834785662039209	-0.4683947858167589	0.01381041712400139	-0.2617842338930413	1.374574396296136	1.374574396296077	-0.09110673012640261	-0.1745264834168924	0.2124645997162762	-0.01580726201546091	-0.01614674070451199	0.01090105127948732	0.00282384916521289	-0.003262825906257223	-0.002312666958982507	0.0025456627690984	2.441121530068929e-05	0.001637837280317897	0.001637837280318024	-0.004236669497260641	-0.0001540815492739724	0.02101615591939416	0.009188060868168708	-0.3345743623626574	0.01463637396570137	-0.0002290436875615529	-0.3018843585345861	0.04357992350676728	0.03104726615843351	0.2853886832459041	-25.95215170654143	-9.740540126653777	2.131635940857398	6.165186714741736	-642.5063086664267	-46.50189122325957	-1.650893541915735	1.545272634746907	0.2730415955315089	1.962104926803193	-6.848612558611559	-0.08559521775069626	-2.354087535563786	-0.02057945963099907	-5.259061313161919	-5.259061313161895	-0.5751794286831253	-0.02887889409120146	-0.6305646057802459	-0.4372960109497118	4.959307891043509e-09	1.847687412147617e-08	-1.320779526575469e-08	2.568351433884283e-09	-1.554850887126636e-09	2.365563739023546e-08	2.552167948383128e-09
1.01	-0.5528749561258799	-0.08355896613578973	0.5759731101128319	1.83441197397739	-0.4684211392058458	0.0137169253567195	-0.261783959664517	1.374327945744459	1.37432794574455	-0.0911749652911293	-0.1745281866036126	0.2126433860956551	-0.01573580169505505	-0.0008912422725054319	0.01362041019470295	0.02240963860118757	-0.07146287145821284	-0.002951675911027287	-0.02123455031813059	3.26922542673743e-05	-0.05092597235325207	-0.05092597235325475	-0.009411696375367144	-0.0001791792774119217	0.01473389596707265	0.005107456597508595	-0.3344759221775273	0.01474135922860858	-0.0002470674087115957	-0.3017105467338322	0.04338247524813706	0.03107486639759436	0.2853149338943913	-26.0018477686645	-9.747933321551397	2.137506737424383	6.117114686792763	-642.3526439806911	-46.52101607388902	-1.656443749939041	1.515497854498169	0.2716460637964502	1.956146335076293	-6.803914749075465	-0.05210499424325751	-2.388574114398334	0.01187055031373134	-5.254742531631685	-5.254742531632054	-0.4888673613858195	0.01179002766430396	-0.6281394702890838	-0.392930112446431	-3.215651994024014e-09	1.088053349479444e-08	3.149526833661861e-08	4.106297453925551e-09	-1.202808225519495e-08	7.519695336112476e-08	-9.713621642140897e-09
1.02	-0.5528076228619391	-0.08340912137440884	0.5762950237623113	1.833356642620934	-0.4684536929365155	0.01338591427473676	-0.2617835348926726	1.373555916747813	1.37355591674805	-0.09129499133344736	-0.1745299177196334	0.212759133319444	-0.01570504491282024	0.0143566324423281	0.01635029008111064	0.04196864336042928	-0.1395914848336841	-0.003552735275543152	-0.04495820016919574	5.451987936358515e-05	-0.1034778517139082	-0.103477851713911	-0.01459484501393141	-0.0001596674119751503	0.008408324801511579	0.00104735323395656	-0.3343774819924019	0.01484634449149462	-0.0002650911298602403	-0.3015367349330789	0.04318502698950116	0.0311024666367249	0.2852411845428775	-26.05730658670783	-9.754381982341153	2.143300628919668	6.089220420491695	-642.2807380968795	-46.5180752331933	-1.673327146266753	1.54374789131231	0.2751457897699083	1.956747991456596	-6.834326123314691	-0.07800530024488424	-2.342774888330989	-0.01787014240511368	-5.256675258579159	-5.256675258578605	-0.5768037807746672	-0.01995697537620284	-0.6392268484281723	-0.4331958295280692	-1.112353567391015e-08	3.244363380427559e-09	7.44724518432884e-08	5.579372213166452e-09	-2.222950321745186e-08	1.239524970492979e-07	-2.148229044347948e-08
1.03	-0.5525877732000816	-0.08323189827270655	0.5768123227625993	1.831620492335168	-0.4684919544695117	0.0128180334692788	-0.2617828914352675	1.37225850429779	1.372258504297551	-0.09146680021392206	-0.1745311384611163	0.2128113349767806	-0.01571468215252913	0.02961888476606814	0.01909867234456938	0.06147965049750589	-0.2076150038162121	-0.004080969045811242	-0.06859987069172634	7.042536059750806e-05	-0.1559953771571501	-0.1559953771571496	-0.0197580866029935	-6.617695677385377e-05	0.002017654515025112	-0.002959620735310072	-0.3339750338344817	0.01503993516749889	-0.0003179252659936553	-0.301226037665958	0.04305208048643715	0.03117894056751885	0.2849549647423345	-26.0725123425423	-9.795673385279214	2.162152619433479	6.002085064345108	-641.9086473348343	-46.5633355148517	-1.701749104967903	1.518298171686166	0.2753371766708124	1.946544597444899	-6.782833608813528	-0.0374527703205202	-2.372170174095717	0.0107589571687917	-5.247895296746353	-5.247895296746246	-0.4847692047187488	0.02677725484975644	-0.6411391902258181	-0.3821842812892373	-1.902869408639647e-08	-4.392213157283044e-09	1.174320243285734e-07	7.051785020766533e-09	-3.242815060413926e-08	1.726796144896882e-07	-3.324588658370391e-08
